<?xml version="1.0" encoding="UTF-8"?>
<svg height="16px" viewBox="0 0 16 16" width="16px" xmlns="http://www.w3.org/2000/svg">
    <path d="m 7.863281 0 c -0.144531 0.00390625 -0.289062 0.0078125 -0.433593 0.0195312 c -1.917969 0.1367188 -3.726563 0.9648438 -5.085938 2.3242188 c -3.125 3.125 -3.125 8.1875 0 11.3125 s 8.1875 3.125 11.3125 0 s 3.125 -8.1875 0 -11.3125 c -1.539062 -1.539062 -3.632812 -2.3789062 -5.792969 -2.33984375 z m -1.851562 4 c 0.171875 0.003906 0.347656 0.050781 0.5 0.144531 l 5 3 c 0.648437 0.386719 0.648437 1.324219 0 1.710938 l -5 3 c -0.664063 0.402343 -1.511719 -0.078125 -1.511719 -0.855469 v -6 c 0 -0.359375 0.195312 -0.691406 0.507812 -0.867188 c 0.15625 -0.089843 0.332032 -0.132812 0.503907 -0.132812 z m 0 0"/>
</svg>
